<?xml version="1.0" standalone="no"?>
<!DOCTYPE svg PUBLIC "-//W3C//DTD SVG 20010904//EN"
 "http://www.w3.org/TR/2001/REC-SVG-20010904/DTD/svg10.dtd">
<svg version="1.0" xmlns="http://www.w3.org/2000/svg"
 width="500.000000pt" height="500.000000pt" viewBox="0 0 500.000000 500.000000"
 preserveAspectRatio="xMidYMid meet">

<g transform="translate(0.000000,500.000000) scale(0.100000,-0.100000)"
fill="#000000" stroke="none">
<path d="M2951 3409 c-165 -32 -309 -170 -345 -329 -13 -58 -16 -152 -16 -583
0 -327 4 -535 11 -572 21 -113 88 -214 182 -276 91 -59 174 -83 292 -83 146
-1 246 36 341 125 60 58 107 147 123 233 14 76 14 271 1 297 -10 17 -23 19
-159 19 -127 0 -150 -2 -155 -16 -3 -9 -6 -62 -6 -120 0 -125 -16 -174 -67
-205 -46 -29 -122 -23 -160 12 -53 49 -53 49 -53 586 0 466 1 501 19 533 25
47 60 71 113 77 37 4 49 1 76 -22 51 -42 62 -74 62 -169 0 -47 4 -96 10 -110
l10 -26 143 0 c98 0 147 4 155 12 15 15 16 193 2 269 -23 119 -104 241 -197
296 -99 58 -249 78 -382 52z"/>
<path d="M1517 3387 c-16 -11 -17 -73 -17 -892 0 -819 1 -881 17 -892 21 -16
809 -19 833 -3 12 7 15 35 15 145 0 124 -2 138 -19 151 -16 11 -68 14 -258 14
l-238 0 -5 23 c-3 12 -4 110 -3 217 l3 195 200 3 c174 2 202 4 213 19 15 20
17 229 2 267 l-10 26 -205 0 -205 0 2 208 3 207 245 3 c216 2 246 4 258 19 19
27 17 267 -4 287 -13 14 -65 16 -413 16 -302 0 -401 -3 -414 -13z"/>
<path d="M1250 1390 c0 -7 423 -10 1250 -10 827 0 1250 3 1250 10 0 7 -423 10
-1250 10 -827 0 -1250 -3 -1250 -10z"/>
<path d="M2201 1094 c-17 -12 -21 -26 -21 -65 0 -62 13 -89 44 -89 37 0 47 22
44 91 -3 53 -6 63 -24 70 -14 5 -29 2 -43 -7z m39 -74 c0 -27 -4 -50 -10 -50
-5 0 -10 23 -10 50 0 28 5 50 10 50 6 0 10 -22 10 -50z"/>
<path d="M2429 1092 c-16 -11 -19 -25 -19 -83 0 -55 3 -69 15 -69 12 0 15 14
15 66 0 48 3 65 13 62 7 -3 13 -28 15 -66 2 -46 7 -62 17 -62 12 0 15 15 15
65 0 37 4 65 10 65 6 0 10 -28 10 -65 0 -52 3 -65 15 -65 13 0 15 13 13 78
l-3 77 -48 6 c-32 3 -55 1 -68 -9z"/>
<path d="M1354 1086 c-3 -7 -4 -42 -2 -77 l3 -64 38 0 c40 0 56 18 20 23 -30
4 -32 42 -3 42 11 0 20 5 20 11 0 6 -9 13 -20 16 -11 3 -20 12 -20 19 0 8 9
14 20 14 11 0 20 7 20 15 0 20 -68 21 -76 1z"/>
<path d="M1570 1075 c-6 -14 -10 -39 -10 -55 0 -16 4 -41 10 -55 8 -22 15 -26
42 -23 28 2 34 8 36 31 2 19 -1 27 -12 27 -9 0 -16 -7 -16 -15 0 -8 -4 -15
-10 -15 -5 0 -10 23 -10 50 0 28 5 50 10 50 6 0 10 -4 10 -10 0 -5 7 -10 16
-10 10 0 14 7 12 23 -2 17 -11 23 -36 25 -27 3 -34 -1 -42 -23z"/>
<path d="M1970 1075 c-6 -14 -10 -39 -10 -55 0 -16 4 -41 10 -55 8 -22 15 -26
42 -23 28 2 34 8 36 31 2 19 -1 27 -12 27 -9 0 -16 -7 -16 -15 0 -8 -4 -15
-10 -15 -5 0 -10 23 -10 50 0 28 5 50 10 50 6 0 10 -4 10 -10 0 -5 7 -10 16
-10 10 0 14 7 12 23 -2 17 -11 23 -36 25 -27 3 -34 -1 -42 -23z"/>
<path d="M2690 1020 c0 -64 3 -80 15 -80 8 0 15 9 15 20 0 13 7 20 18 20 28 0
42 20 42 60 0 45 -15 60 -57 60 l-33 0 0 -80z m55 20 c0 -13 -6 -25 -12 -27
-9 -3 -13 6 -13 27 0 21 4 30 13 28 6 -3 12 -15 12 -28z"/>
<path d="M2910 1032 c0 -72 10 -92 45 -92 35 0 45 20 45 92 0 54 -3 68 -15 68
-12 0 -15 -14 -15 -66 0 -48 -3 -65 -12 -62 -8 3 -14 28 -16 66 -2 46 -7 62
-17 62 -12 0 -15 -15 -15 -68z"/>
<path d="M3130 1085 c0 -8 7 -15 15 -15 12 0 15 -14 15 -65 0 -51 3 -65 15
-65 12 0 15 14 15 64 0 49 4 65 16 70 27 10 5 26 -37 26 -28 0 -39 -4 -39 -15z"/>
<path d="M3344 1086 c-3 -7 -4 -42 -2 -77 l3 -64 38 -3 c28 -2 37 0 37 12 0 9
-9 16 -20 16 -13 0 -20 7 -20 20 0 13 7 20 20 20 11 0 20 5 20 11 0 6 -9 13
-20 16 -11 3 -20 12 -20 19 0 8 9 14 20 14 11 0 20 7 20 15 0 20 -68 21 -76 1z"/>
<path d="M3560 1020 c0 -64 3 -80 15 -80 10 0 15 10 15 30 0 17 5 30 10 30 6
0 10 -13 10 -30 0 -23 4 -30 20 -30 21 0 25 19 11 55 -5 11 -4 30 1 41 16 35
-6 64 -47 64 l-35 0 0 -80z m50 30 c0 -11 -4 -20 -10 -20 -5 0 -10 9 -10 20 0
11 5 20 10 20 6 0 10 -9 10 -20z"/>
<path d="M1250 745 c0 -13 146 -15 1250 -15 1104 0 1250 2 1250 15 0 13 -146
15 -1250 15 -1104 0 -1250 -2 -1250 -15z"/>
</g>
</svg>
