<svg xmlns="http://www.w3.org/2000/svg" xmlns:xlink="http://www.w3.org/1999/xlink" width="500" zoomAndPan="magnify" viewBox="0 0 375 374.999991" height="500" preserveAspectRatio="xMidYMid meet" version="1.0"><defs><g/><clipPath id="id1"><path d="M 93 141.820312 L 119 141.820312 L 119 161 L 93 161 Z M 93 141.820312 " clip-rule="nonzero"/></clipPath><clipPath id="id2"><path d="M 83.347656 158 L 129 158 L 129 206.320312 L 83.347656 206.320312 Z M 83.347656 158 " clip-rule="nonzero"/></clipPath></defs><rect x="-37.5" width="450" fill="#ffffff" y="-37.499999" height="449.999989" fill-opacity="1"/><rect x="-37.5" width="450" fill="#078fcd" y="-37.499999" height="449.999989" fill-opacity="1"/><rect x="-37.5" width="450" fill="#ffffff" y="-37.499999" height="449.999989" fill-opacity="1"/><rect x="-37.5" width="450" fill="#078fcd" y="-37.499999" height="449.999989" fill-opacity="1"/><g clip-path="url(#id1)"><path fill="#ffffff" d="M 118.675781 160.234375 L 114.859375 160.234375 L 114.859375 154.277344 C 114.859375 149.507812 110.96875 145.640625 106.171875 145.640625 C 101.378906 145.640625 97.484375 149.507812 97.484375 154.277344 L 97.484375 160.234375 L 93.671875 160.234375 L 93.671875 154.277344 C 93.671875 147.421875 99.277344 141.84375 106.171875 141.84375 C 113.066406 141.84375 118.675781 147.421875 118.675781 154.277344 Z M 118.675781 160.234375 " fill-opacity="1" fill-rule="nonzero"/></g><g clip-path="url(#id2)"><path fill="#ffffff" d="M 88.710938 162.132812 L 123.660156 162.132812 L 124.78125 189.539062 L 108.082031 189.539062 L 108.082031 175.804688 L 113.410156 181.101562 L 116.105469 178.421875 L 106.171875 168.542969 L 96.238281 178.421875 L 98.9375 181.101562 L 104.265625 175.804688 L 104.265625 193.332031 L 128.761719 193.332031 L 127.324219 158.335938 L 84.996094 158.335938 L 83.609375 206.394531 L 107.164062 206.394531 L 107.164062 202.601562 L 87.539062 202.601562 Z M 88.710938 162.132812 " fill-opacity="1" fill-rule="nonzero"/></g><g fill="#ffffff" fill-opacity="1"><g transform="translate(139.60753, 195.032169)"><g><path d="M 11.84375 0.375 C 9.675781 0.375 7.8125 -0.09375 6.25 -1.03125 C 4.6875 -1.96875 3.484375 -3.269531 2.640625 -4.9375 C 1.804688 -6.613281 1.390625 -8.550781 1.390625 -10.75 C 1.390625 -12.9375 1.804688 -14.867188 2.640625 -16.546875 C 3.484375 -18.234375 4.6875 -19.550781 6.25 -20.5 C 7.8125 -21.445312 9.675781 -21.921875 11.84375 -21.921875 C 14.4375 -21.921875 16.554688 -21.273438 18.203125 -19.984375 C 19.859375 -18.703125 20.890625 -16.90625 21.296875 -14.59375 L 16.953125 -14.59375 C 16.691406 -15.757812 16.125 -16.675781 15.25 -17.34375 C 14.375 -18.007812 13.222656 -18.34375 11.796875 -18.34375 C 9.796875 -18.34375 8.234375 -17.664062 7.109375 -16.3125 C 5.984375 -14.957031 5.421875 -13.101562 5.421875 -10.75 C 5.421875 -8.382812 5.984375 -6.53125 7.109375 -5.1875 C 8.234375 -3.84375 9.796875 -3.171875 11.796875 -3.171875 C 13.222656 -3.171875 14.375 -3.484375 15.25 -4.109375 C 16.125 -4.734375 16.691406 -5.597656 16.953125 -6.703125 L 21.296875 -6.703125 C 20.890625 -4.492188 19.859375 -2.757812 18.203125 -1.5 C 16.554688 -0.25 14.4375 0.375 11.84375 0.375 Z M 11.84375 0.375 "/></g></g></g><g fill="#ffffff" fill-opacity="1"><g transform="translate(162.296184, 195.032169)"><g><path d="M 2 0 L 2 -22.15625 L 5.9375 -22.15625 L 5.9375 0 Z M 2 0 "/></g></g></g><g fill="#ffffff" fill-opacity="1"><g transform="translate(170.269534, 195.032169)"><g><path d="M 4.125 -17.640625 C 3.40625 -17.640625 2.8125 -17.851562 2.34375 -18.28125 C 1.882812 -18.71875 1.65625 -19.265625 1.65625 -19.921875 C 1.65625 -20.578125 1.882812 -21.113281 2.34375 -21.53125 C 2.8125 -21.945312 3.40625 -22.15625 4.125 -22.15625 C 4.84375 -22.15625 5.429688 -21.945312 5.890625 -21.53125 C 6.359375 -21.113281 6.59375 -20.578125 6.59375 -19.921875 C 6.59375 -19.265625 6.359375 -18.71875 5.890625 -18.28125 C 5.429688 -17.851562 4.84375 -17.640625 4.125 -17.640625 Z M 2.15625 0 L 2.15625 -15.265625 L 6.09375 -15.265625 L 6.09375 0 Z M 2.15625 0 "/></g></g></g><g fill="#ffffff" fill-opacity="1"><g transform="translate(178.489172, 195.032169)"><g><path d="M 9.484375 0.375 C 7.921875 0.375 6.546875 0.0351562 5.359375 -0.640625 C 4.171875 -1.316406 3.234375 -2.257812 2.546875 -3.46875 C 1.859375 -4.6875 1.515625 -6.078125 1.515625 -7.640625 C 1.515625 -9.191406 1.859375 -10.570312 2.546875 -11.78125 C 3.234375 -13 4.171875 -13.945312 5.359375 -14.625 C 6.546875 -15.300781 7.921875 -15.640625 9.484375 -15.640625 C 11.429688 -15.640625 13.070312 -15.128906 14.40625 -14.109375 C 15.738281 -13.097656 16.585938 -11.695312 16.953125 -9.90625 L 12.8125 -9.90625 C 12.601562 -10.644531 12.195312 -11.222656 11.59375 -11.640625 C 10.988281 -12.066406 10.273438 -12.28125 9.453125 -12.28125 C 8.359375 -12.28125 7.429688 -11.867188 6.671875 -11.046875 C 5.921875 -10.222656 5.546875 -9.085938 5.546875 -7.640625 C 5.546875 -6.179688 5.921875 -5.039062 6.671875 -4.21875 C 7.429688 -3.394531 8.359375 -2.984375 9.453125 -2.984375 C 10.273438 -2.984375 10.988281 -3.1875 11.59375 -3.59375 C 12.195312 -4.007812 12.601562 -4.597656 12.8125 -5.359375 L 16.953125 -5.359375 C 16.585938 -3.628906 15.738281 -2.238281 14.40625 -1.1875 C 13.070312 -0.144531 11.429688 0.375 9.484375 0.375 Z M 9.484375 0.375 "/></g></g></g><g fill="#ffffff" fill-opacity="1"><g transform="translate(196.960256, 195.032169)"><g><path d="M 2 0 L 2 -22.15625 L 5.9375 -22.15625 L 5.9375 -9.078125 L 11.359375 -15.265625 L 16.03125 -15.265625 L 9.78125 -8.3125 L 17.046875 0 L 12.125 0 L 5.9375 -7.671875 L 5.9375 0 Z M 2 0 "/></g></g></g><g fill="#ffffff" fill-opacity="1"><g transform="translate(214.44622, 195.032169)"><g><path d="M 9.453125 0.375 C 7.867188 0.375 6.472656 0.101562 5.265625 -0.4375 C 4.054688 -0.988281 3.101562 -1.769531 2.40625 -2.78125 C 1.707031 -3.800781 1.347656 -5.039062 1.328125 -6.5 L 5.484375 -6.5 C 5.523438 -5.488281 5.890625 -4.640625 6.578125 -3.953125 C 7.265625 -3.265625 8.210938 -2.921875 9.421875 -2.921875 C 10.460938 -2.921875 11.289062 -3.171875 11.90625 -3.671875 C 12.519531 -4.179688 12.828125 -4.851562 12.828125 -5.6875 C 12.828125 -6.570312 12.554688 -7.257812 12.015625 -7.75 C 11.472656 -8.25 10.75 -8.648438 9.84375 -8.953125 C 8.945312 -9.265625 7.984375 -9.59375 6.953125 -9.9375 C 5.296875 -10.507812 4.03125 -11.25 3.15625 -12.15625 C 2.28125 -13.0625 1.84375 -14.265625 1.84375 -15.765625 C 1.820312 -17.035156 2.125 -18.125 2.75 -19.03125 C 3.375 -19.945312 4.226562 -20.65625 5.3125 -21.15625 C 6.40625 -21.664062 7.660156 -21.921875 9.078125 -21.921875 C 10.515625 -21.921875 11.78125 -21.660156 12.875 -21.140625 C 13.976562 -20.628906 14.84375 -19.910156 15.46875 -18.984375 C 16.09375 -18.066406 16.425781 -16.972656 16.46875 -15.703125 L 12.25 -15.703125 C 12.226562 -16.460938 11.9375 -17.132812 11.375 -17.71875 C 10.8125 -18.300781 10.023438 -18.59375 9.015625 -18.59375 C 8.148438 -18.613281 7.425781 -18.398438 6.84375 -17.953125 C 6.257812 -17.515625 5.96875 -16.875 5.96875 -16.03125 C 5.96875 -15.3125 6.191406 -14.742188 6.640625 -14.328125 C 7.097656 -13.910156 7.71875 -13.554688 8.5 -13.265625 C 9.28125 -12.972656 10.171875 -12.664062 11.171875 -12.34375 C 12.242188 -11.976562 13.21875 -11.546875 14.09375 -11.046875 C 14.976562 -10.554688 15.6875 -9.90625 16.21875 -9.09375 C 16.75 -8.28125 17.015625 -7.238281 17.015625 -5.96875 C 17.015625 -4.84375 16.726562 -3.796875 16.15625 -2.828125 C 15.582031 -1.867188 14.726562 -1.09375 13.59375 -0.5 C 12.46875 0.0820312 11.085938 0.375 9.453125 0.375 Z M 9.453125 0.375 "/></g></g></g><g fill="#ffffff" fill-opacity="1"><g transform="translate(232.82495, 195.032169)"><g><path d="M 8.796875 0 C 7.203125 0 5.921875 -0.390625 4.953125 -1.171875 C 3.992188 -1.953125 3.515625 -3.335938 3.515625 -5.328125 L 3.515625 -11.96875 L 0.890625 -11.96875 L 0.890625 -15.265625 L 3.515625 -15.265625 L 3.96875 -19.359375 L 7.453125 -19.359375 L 7.453125 -15.265625 L 11.578125 -15.265625 L 11.578125 -11.96875 L 7.453125 -11.96875 L 7.453125 -5.296875 C 7.453125 -4.554688 7.609375 -4.046875 7.921875 -3.765625 C 8.242188 -3.492188 8.796875 -3.359375 9.578125 -3.359375 L 11.484375 -3.359375 L 11.484375 0 Z M 8.796875 0 "/></g></g></g><g fill="#ffffff" fill-opacity="1"><g transform="translate(245.785497, 195.032169)"><g><path d="M 9.328125 0.375 C 7.847656 0.375 6.519531 0.0351562 5.34375 -0.640625 C 4.164062 -1.316406 3.234375 -2.253906 2.546875 -3.453125 C 1.859375 -4.660156 1.515625 -6.054688 1.515625 -7.640625 C 1.515625 -9.210938 1.859375 -10.597656 2.546875 -11.796875 C 3.242188 -13.003906 4.179688 -13.945312 5.359375 -14.625 C 6.546875 -15.300781 7.878906 -15.640625 9.359375 -15.640625 C 10.816406 -15.640625 12.132812 -15.300781 13.3125 -14.625 C 14.488281 -13.945312 15.421875 -13.003906 16.109375 -11.796875 C 16.796875 -10.597656 17.140625 -9.210938 17.140625 -7.640625 C 17.140625 -6.054688 16.796875 -4.660156 16.109375 -3.453125 C 15.421875 -2.253906 14.484375 -1.316406 13.296875 -0.640625 C 12.109375 0.0351562 10.785156 0.375 9.328125 0.375 Z M 9.328125 -3.046875 C 10.347656 -3.046875 11.238281 -3.429688 12 -4.203125 C 12.757812 -4.972656 13.140625 -6.117188 13.140625 -7.640625 C 13.140625 -9.148438 12.757812 -10.289062 12 -11.0625 C 11.238281 -11.832031 10.359375 -12.21875 9.359375 -12.21875 C 8.304688 -12.21875 7.40625 -11.832031 6.65625 -11.0625 C 5.914062 -10.289062 5.546875 -9.148438 5.546875 -7.640625 C 5.546875 -6.117188 5.914062 -4.972656 6.65625 -4.203125 C 7.40625 -3.429688 8.296875 -3.046875 9.328125 -3.046875 Z M 9.328125 -3.046875 "/></g></g></g><g fill="#ffffff" fill-opacity="1"><g transform="translate(264.441288, 195.032169)"><g><path d="M 2 0 L 2 -15.265625 L 5.515625 -15.265625 L 5.875 -12.40625 C 6.425781 -13.382812 7.179688 -14.164062 8.140625 -14.75 C 9.097656 -15.34375 10.222656 -15.640625 11.515625 -15.640625 L 11.515625 -11.484375 L 10.40625 -11.484375 C 9.539062 -11.484375 8.769531 -11.347656 8.09375 -11.078125 C 7.414062 -10.816406 6.882812 -10.359375 6.5 -9.703125 C 6.125 -9.046875 5.9375 -8.128906 5.9375 -6.953125 L 5.9375 0 Z M 2 0 "/></g></g></g><g fill="#ffffff" fill-opacity="1"><g transform="translate(276.632209, 195.032169)"><g><path d="M 9.421875 0.375 C 7.878906 0.375 6.515625 0.046875 5.328125 -0.609375 C 4.140625 -1.265625 3.207031 -2.1875 2.53125 -3.375 C 1.851562 -4.570312 1.515625 -5.953125 1.515625 -7.515625 C 1.515625 -9.085938 1.847656 -10.488281 2.515625 -11.71875 C 3.179688 -12.957031 4.101562 -13.921875 5.28125 -14.609375 C 6.457031 -15.296875 7.847656 -15.640625 9.453125 -15.640625 C 10.953125 -15.640625 12.273438 -15.3125 13.421875 -14.65625 C 14.566406 -14 15.460938 -13.097656 16.109375 -11.953125 C 16.753906 -10.816406 17.078125 -9.550781 17.078125 -8.15625 C 17.078125 -7.925781 17.070312 -7.6875 17.0625 -7.4375 C 17.050781 -7.195312 17.035156 -6.941406 17.015625 -6.671875 L 5.421875 -6.671875 C 5.503906 -5.484375 5.914062 -4.550781 6.65625 -3.875 C 7.40625 -3.195312 8.316406 -2.859375 9.390625 -2.859375 C 10.191406 -2.859375 10.863281 -3.035156 11.40625 -3.390625 C 11.945312 -3.753906 12.351562 -4.222656 12.625 -4.796875 L 16.625 -4.796875 C 16.332031 -3.835938 15.851562 -2.960938 15.1875 -2.171875 C 14.519531 -1.378906 13.695312 -0.753906 12.71875 -0.296875 C 11.75 0.148438 10.648438 0.375 9.421875 0.375 Z M 9.453125 -12.4375 C 8.484375 -12.4375 7.628906 -12.160156 6.890625 -11.609375 C 6.148438 -11.066406 5.679688 -10.242188 5.484375 -9.140625 L 13.078125 -9.140625 C 13.015625 -10.148438 12.644531 -10.953125 11.96875 -11.546875 C 11.289062 -12.140625 10.453125 -12.4375 9.453125 -12.4375 Z M 9.453125 -12.4375 "/></g></g></g></svg>